<svg width="24" height="24" viewBox="0 0 24 24" fill="none" xmlns="http://www.w3.org/2000/svg">
<path fill-rule="evenodd" clip-rule="evenodd" d="M8.36 2C8.85706 2 9.26 2.40294 9.26 2.9V3.82H14.74V2.9C14.74 2.40294 15.1429 2 15.64 2C16.1371 2 16.54 2.40294 16.54 2.9V3.82141C16.9767 3.82432 17.3578 3.83318 17.6884 3.86018C18.1992 3.90192 18.668 3.99145 19.108 4.21565C19.791 4.56367 20.3463 5.11899 20.6944 5.80201C20.9186 6.24202 21.0081 6.71076 21.0498 7.22165C21.0754 7.53455 21.0847 7.89278 21.0881 8.30059C21.0894 8.32023 21.09 8.34004 21.09 8.36C21.09 8.37562 21.0896 8.39114 21.0888 8.40656C21.09 8.60929 21.09 8.82387 21.09 9.05077V16.7692C21.09 17.5021 21.09 18.1063 21.0498 18.5983C21.0081 19.1092 20.9186 19.578 20.6944 20.018C20.3463 20.701 19.791 21.2563 19.108 21.6044C18.668 21.8286 18.1992 21.9181 17.6884 21.9598C17.1963 22 16.5921 22 15.8592 22H8.14077C7.40795 22 6.80373 22 6.31166 21.9598C5.80077 21.9181 5.33203 21.8286 4.89202 21.6044C4.20899 21.2563 3.65367 20.701 3.30565 20.018C3.08145 19.578 2.99193 19.1092 2.95019 18.5983C2.90998 18.1063 2.90999 17.5021 2.91 16.7692V9.05077C2.91 8.82387 2.91 8.60929 2.91119 8.40655C2.9104 8.39114 2.91 8.37561 2.91 8.36C2.91 8.34004 2.91065 8.32023 2.91193 8.30059C2.91532 7.89278 2.92462 7.53455 2.95019 7.22165C2.99193 6.71076 3.08145 6.24202 3.30565 5.80201C3.65367 5.11899 4.20899 4.56367 4.89202 4.21565C5.33203 3.99145 5.80077 3.90192 6.31166 3.86018C6.64218 3.83318 7.0233 3.82432 7.46 3.82141V2.9C7.46 2.40294 7.86295 2 8.36 2ZM7.46 5.62153C7.04965 5.62432 6.72793 5.63217 6.45823 5.6542C6.05866 5.68685 5.85317 5.7461 5.7092 5.81946C5.36487 5.99491 5.08491 6.27486 4.90946 6.6192C4.83611 6.76317 4.77686 6.96865 4.74421 7.36823C4.74176 7.39816 4.73949 7.42874 4.73738 7.46H19.2626C19.2605 7.42874 19.2582 7.39816 19.2558 7.36823C19.2232 6.96865 19.1639 6.76317 19.0905 6.6192C18.9151 6.27486 18.6351 5.99491 18.2908 5.81946C18.1468 5.7461 17.9413 5.68685 17.5418 5.6542C17.2721 5.63217 16.9504 5.62432 16.54 5.62153V5.63C16.54 6.12706 16.1371 6.53 15.64 6.53C15.1429 6.53 14.74 6.12706 14.74 5.63V5.62H9.26V5.63C9.26 6.12706 8.85706 6.53 8.36 6.53C7.86295 6.53 7.46 6.12706 7.46 5.63V5.62153ZM19.29 9.26H4.71V16.732C4.71 17.5113 4.7107 18.0417 4.74421 18.4518C4.77686 18.8513 4.83611 19.0568 4.90946 19.2008C5.08491 19.5451 5.36487 19.8251 5.7092 20.0005C5.85317 20.0739 6.05866 20.1331 6.45823 20.1658C6.86832 20.1993 7.39868 20.2 8.178 20.2H15.822C16.6013 20.2 17.1317 20.1993 17.5418 20.1658C17.9413 20.1331 18.1468 20.0739 18.2908 20.0005C18.6351 19.8251 18.9151 19.5451 19.0905 19.2008C19.1639 19.0568 19.2232 18.8513 19.2558 18.4518C19.2893 18.0417 19.29 17.5113 19.29 16.732V9.26ZM12 11.1C12.4971 11.1 12.9 11.5029 12.9 12V13.83H14.73C15.2271 13.83 15.63 14.2329 15.63 14.73C15.63 15.2271 15.2271 15.63 14.73 15.63H12.9V17.46C12.9 17.9571 12.4971 18.36 12 18.36C11.5029 18.36 11.1 17.9571 11.1 17.46V15.63H9.27C8.77295 15.63 8.37 15.2271 8.37 14.73C8.37 14.2329 8.77295 13.83 9.27 13.83H11.1V12C11.1 11.5029 11.5029 11.1 12 11.1Z" fill="#1F1F1F"/>
</svg>
